<svg width="14" height="20" viewBox="0 0 14 20" fill="none" xmlns="http://www.w3.org/2000/svg">
<path d="M7.12 0.724998V4.115" stroke="#222222" stroke-miterlimit="10" stroke-linecap="round" stroke-linejoin="round"/>
<path d="M5.12999 2.77499C2.85999 3.58499 1.25 5.745 1.25 8.285V16.965C1.25 17.255 1.49 17.495 1.78 17.495H3.31" stroke="#222222" stroke-miterlimit="10" stroke-linecap="round" stroke-linejoin="round"/>
<path d="M9.12999 2.785C11.39 3.595 13 5.745 13 8.285V16.965C13 17.255 12.76 17.495 12.46 17.495H10.94" stroke="#222222" stroke-miterlimit="10" stroke-linecap="round" stroke-linejoin="round"/>
<path d="M7.12999 19.305C8.12963 19.305 8.93999 18.4946 8.93999 17.495C8.93999 16.4954 8.12963 15.685 7.12999 15.685C6.13035 15.685 5.31999 16.4954 5.31999 17.495C5.31999 18.4946 6.13035 19.305 7.12999 19.305Z" stroke="#222222" stroke-miterlimit="10" stroke-linecap="round" stroke-linejoin="round"/>
</svg>
