<svg width="19" height="19" viewBox="0 0 19 19" fill="none" xmlns="http://www.w3.org/2000/svg">
<path d="M7.46 9.27499C6.07 10.165 4.22999 10.175 2.82999 9.29498C1.29999 8.33498 0.609996 6.69499 0.739996 5.11499C0.779996 4.61499 1.38 4.38499 1.73 4.73499L3.4 6.41499C3.62 6.64499 3.99001 6.64499 4.22001 6.41499L6.1 4.51499C6.33 4.28499 6.33 3.91499 6.1 3.69499L4.43 2.01499C4.08 1.66499 4.30999 1.05499 4.79999 1.01499C6.04999 0.914985 7.34 1.33498 8.29 2.29498C10.26 4.28498 9.98 7.67499 7.46 9.27499Z" stroke="#222222" stroke-miterlimit="10" stroke-linecap="round" stroke-linejoin="round"/>
<path d="M11.02 8.72499L17.38 15.095C17.57 15.295 17.57 15.605 17.38 15.795L15.39 17.795C15.19 17.995 14.87 17.995 14.68 17.795L8.34999 11.395" stroke="#222222" stroke-miterlimit="10" stroke-linecap="round" stroke-linejoin="round"/>
</svg>
